<?xml version="1.0" encoding="utf-8"?>
<!-- Generator: Adobe Illustrator 19.0.0, SVG Export Plug-In . SVG Version: 6.00 Build 0)  -->
<svg version="1.1" id="Layer_1" xmlns="http://www.w3.org/2000/svg" xmlns:xlink="http://www.w3.org/1999/xlink" x="0px" y="0px"
	 viewBox="1.362 9.055 259 259" enable-background="new 1.362 9.055 259 259" xml:space="preserve">
<path d="M130,27.055c-67.579,0-122.362,43.195-122.362,96.478c0,34.449,22.903,64.675,57.355,81.743
	c-1.875,6.464-12.044,41.584-12.449,44.344c0,0-0.244,2.073,1.099,2.863c1.343,0.791,2.921,0.177,2.921,0.177
	c3.85-0.538,44.642-29.191,51.703-34.167c7.054,0.998,14.316,1.518,21.734,1.518c67.579,0,122.362-43.194,122.362-96.478
	C252.362,70.25,197.579,27.055,130,27.055z"/>
<path fill="#FFE812" d="M62.348,157.212c-3.893,0-7.059-3.024-7.059-6.742v-41.938H44.274c-3.82,0-6.928-3.101-6.928-6.912
	c0-3.811,3.109-6.912,6.928-6.912h36.148c3.82,0,6.928,3.101,6.928,6.912c0,3.811-3.109,6.912-6.928,6.912H69.407v41.938
	C69.407,154.188,66.241,157.212,62.348,157.212z"/>
<path fill="#FFE812" d="M124.249,157.12c-2.944,0-5.196-1.195-5.874-3.118l-3.496-9.151l-21.526-0.001l-3.498,9.156
	c-0.676,1.92-2.927,3.114-5.871,3.114c-1.555,0-3.108-0.337-4.487-0.974c-1.946-0.897-3.817-3.367-1.674-10.024l16.886-44.446
	c1.19-3.38,4.803-6.863,9.401-6.967c4.611,0.103,8.224,3.587,9.416,6.975l16.879,44.425c2.148,6.673,0.278,9.144-1.669,10.039
	C127.354,156.784,125.803,157.12,124.249,157.12C124.248,157.12,124.249,157.12,124.249,157.12z M111.167,132.347l-7.051-20.031
	l-7.051,20.031H111.167L111.167,132.347z"/>
<path fill="#FFE812" d="M141.766,156.183c-3.731,0-6.765-2.904-6.765-6.471v-47.945c0-3.893,3.233-7.059,7.206-7.059
	c3.973,0,7.206,3.166,7.206,7.059v41.474h15.001c3.731,0,6.765,2.904,6.765,6.471s-3.034,6.471-6.765,6.471H141.766z"/>
<path fill="#FFE812" d="M180.985,157.12c-3.893,0-7.059-3.167-7.059-7.059v-48.294c0-3.893,3.167-7.059,7.059-7.059
	c3.893,0,7.059,3.166,7.059,7.059v15.173l19.696-19.695c1.013-1.013,2.405-1.571,3.916-1.571c1.763,0,3.532,0.76,4.858,2.085
	c1.236,1.236,1.974,2.825,2.075,4.476c0.102,1.665-0.452,3.191-1.558,4.298l-16.087,16.085l17.376,23.02
	c1.138,1.505,1.618,3.362,1.356,5.23c-0.261,1.868-1.234,3.521-2.739,4.656c-1.235,0.933-2.702,1.425-4.245,1.425
	c-2.238,0-4.293-1.021-5.64-2.806l-16.555-21.936l-2.45,2.45v15.402C188.044,153.954,184.878,157.12,180.985,157.12z"/>
</svg>
