<?xml version="1.0" encoding="utf-8"?>
<!-- Generator: Adobe Illustrator 19.0.0, SVG Export Plug-In . SVG Version: 6.00 Build 0)  -->
<svg version="1.1" id="Layer_1" xmlns="http://www.w3.org/2000/svg" xmlns:xlink="http://www.w3.org/1999/xlink" x="0px" y="0px"
	 viewBox="0 0 377.763 377.763" enable-background="new 0 0 377.763 377.763" xml:space="preserve">
<path fill="#FFFFFF" d="M188.515,23.947c99.337,0,179.867,64.483,179.867,144.028c0,27.785-9.832,53.727-26.853,75.728
	c-0.843,1.253-1.943,2.636-3.331,4.165l-0.105,0.115c-5.814,6.955-12.361,13.486-19.56,19.514
	c-49.74,45.976-131.61,100.711-142.416,92.267c-9.393-7.341,15.471-43.245-13.216-49.219c-2.001-0.231-3.997-0.477-5.976-0.757
	l-0.037-0.004v-0.003C72.633,297.813,8.649,238.878,8.649,167.975C8.647,88.431,89.177,23.947,188.515,23.947z"/>
<path fill="#3ACE01" d="M84.156,213.917h0.603h0.179h35.494c5.16,0,9.381-4.222,9.381-9.382v-0.782c0-5.161-4.221-9.381-9.381-9.381
	H94.319v-59.413c0-5.16-4.22-9.38-9.381-9.38h-0.783c-5.16,0-9.381,4.22-9.381,9.38v69.574
	C74.775,209.695,78.996,213.917,84.156,213.917L84.156,213.917z M308.941,170.306v-0.782c0-5.161-4.22-9.381-9.381-9.381h-26.112
	v-14.852h26.112c5.161,0,9.381-4.222,9.381-9.381v-0.782c0-5.161-4.22-9.381-9.381-9.381h-35.494h-0.179h-0.603
	c-5.16,0-9.38,4.22-9.38,9.381v69.573c0,5.161,4.22,9.382,9.38,9.382h0.603h0.179h35.494c5.161,0,9.381-4.222,9.381-9.382v-0.782
	c0-5.161-4.22-9.381-9.381-9.381h-26.112v-14.852h26.112C304.721,179.687,308.941,175.466,308.941,170.306L308.941,170.306z
	 M239.179,211.12l0.002-0.004c1.673-1.698,2.712-4.024,2.712-6.58v-69.574c0-5.16-4.22-9.38-9.382-9.38h-0.782
	c-5.161,0-9.381,4.22-9.381,9.38v40.842l-33.906-45.478c-1.62-2.829-4.67-4.744-8.145-4.744h-0.783c-5.16,0-9.382,4.22-9.382,9.38
	v69.574c0,5.161,4.22,9.382,9.382,9.382h0.783c5.16,0,9.381-4.222,9.381-9.382v-41.604l34.151,46.644
	c0.21,0.327,0.438,0.641,0.687,0.94l0.001,0.003c0.939,1.279,2.222,2.157,3.651,2.693c1.1,0.454,2.302,0.706,3.559,0.706h0.783
	c1.58,0,3.072-0.398,4.383-1.096C237.831,212.375,238.622,211.798,239.179,211.12L239.179,211.12z M146.765,213.917h0.783
	c5.16,0,9.38-4.222,9.38-9.382V134.96c0-5.159-4.22-9.38-9.38-9.38h-0.783c-5.16,0-9.382,4.22-9.382,9.38v69.574
	C137.383,209.695,141.605,213.917,146.765,213.917z"/>
</svg>
