<?xml version="1.0" encoding="iso-8859-1"?>
<!-- Generator: Adobe Illustrator 16.0.0, SVG Export Plug-In . SVG Version: 6.00 Build 0)  -->
<!DOCTYPE svg PUBLIC "-//W3C//DTD SVG 1.1//EN" "http://www.w3.org/Graphics/SVG/1.1/DTD/svg11.dtd">
<svg version="1.1" id="Capa_1" xmlns="http://www.w3.org/2000/svg" xmlns:xlink="http://www.w3.org/1999/xlink" x="0px" y="0px"
	 width="800.001px" height="800.001px" viewBox="0 0 800.001 800.001" style="enable-background:new 0 0 800.001 800.001;"
	 xml:space="preserve">
<g>
	<path d="M485.269,85.374c0-46.777,36.813-84.678,82.221-84.678c45.417,0,82.263,37.901,82.263,84.678
		c0,46.81-36.846,84.679-82.263,84.679C522.081,170.052,485.269,132.184,485.269,85.374z M657.957,209.972
		c-11.955-9.538-24.372-17.697-38.757-22.83c-13.362-4.773-27.446-7.432-41.529-8.42l21.227,229.492l-30.636,36.99l-35.03-36.99
		l26.587-229.817c-15.36,0.532-30.809,3.071-45.311,8.398c-5.918,2.17-11.709,4.817-17.145,8.084
		c-9.55,5.75-18.325,12.685-26.619,20.269c-40.991,37.392-63.186,102.311-67.879,198.448c-0.816,16.493,11.505,30.523,27.51,31.35
		c0.506,0.031,1,0.043,1.494,0.043c15.36,0,28.188-12.402,28.961-28.376c3.188-65.125,15.727-113.681,36.33-142.598
		c-1.482,30.305-4.104,85.264-6.446,141.417c-0.148,1.02-0.43,1.985-0.505,3.019l-23.191,337.693
		c-1.472,21.345,14.147,39.854,34.868,41.373c0.903,0.064,1.815,0.098,2.697,0.098c19.571,0,36.082-15.604,37.489-36.014
		l18.262-265.861c2.878-0.824,5.715-1.554,8.142-1.554c2.892,0,5.663,0.521,8.466,0.879l16.888,268.706
		c1.289,20.486,17.841,36.231,37.51,36.231c0.808,0,1.646-0.022,2.474-0.076c20.729-1.389,36.446-19.813,35.114-41.179
		L648.858,439.67c-0.106-1.78-0.504-3.461-0.826-5.144c-1.676-48.851-7.111-121.169-10.228-160.47
		c21.022,28.961,32.859,77.018,34.148,141.667c0.334,16.286,13.257,29.266,29.616,29.254c16.026-0.338,28.746-13.986,28.425-30.489
		C728.019,315.3,703.783,246.484,657.957,209.972z M104.58,0h213.219c19.089,0,34.589,15.831,34.589,35.331v9.57H191.74
		c-42.904,0-77.783,35.677-77.783,79.503v164.161h-9.377c-19.068,0-34.579-15.832-34.579-35.33V35.331
		C70.001,15.831,85.512,0,104.58,0z M407.688,71.409H189.022c-27.026,0-49.145,22.514-49.145,50.032v223.807
		c0,27.517,22.118,50.032,49.145,50.032h218.667c27.026,0,49.146-22.515,49.146-50.032V121.441
		C456.834,93.923,434.716,71.409,407.688,71.409z M415.874,345.248c0,4.523-3.749,8.343-8.187,8.343H189.022
		c-4.436,0-8.185-3.82-8.185-8.343V121.441c0-4.514,3.749-8.333,8.185-8.333h218.667c4.437,0,8.186,3.819,8.186,8.333V345.248
		L415.874,345.248z M234.043,167.893v130.913h128.615V167.893H234.043z M323.493,242.72c-15.975,0-28.908-13.173-28.908-29.427
		s12.934-29.427,28.908-29.427c15.962,0,28.896,13.172,28.896,29.427S339.455,242.72,323.493,242.72z"/>
</g>
<g>
</g>
<g>
</g>
<g>
</g>
<g>
</g>
<g>
</g>
<g>
</g>
<g>
</g>
<g>
</g>
<g>
</g>
<g>
</g>
<g>
</g>
<g>
</g>
<g>
</g>
<g>
</g>
<g>
</g>
</svg>
