<?xml version="1.0" encoding="utf-8"?>
<!-- Generator: Adobe Illustrator 19.0.0, SVG Export Plug-In . SVG Version: 6.00 Build 0)  -->
<svg version="1.1" id="Layer_1" xmlns="http://www.w3.org/2000/svg" xmlns:xlink="http://www.w3.org/1999/xlink" x="0px" y="0px"
	 viewBox="316.507 39.286 514.23 514.631" enable-background="new 316.507 39.286 514.23 514.631" xml:space="preserve">
<path fill="#FFFFFF" d="M429.142,489.925c-1.401,0-2.738-0.051-3.755-0.1c-0.806,0.07-1.64,0.1-2.474,0.1
	c-29.434,0-49.115-13.914-66.483-26.202c-12.449-8.794-24.189-17.095-37.942-19.384c-6.755-1.12-13.475-1.689-19.968-1.689
	c-11.697,0-20.941,1.815-27.692,3.135c-4.153,0.81-7.734,1.505-10.503,1.505c-2.899,0-6.422-0.642-7.889-5.655
	c-1.165-3.954-1.999-7.786-2.804-11.474c-2.015-9.218-3.476-14.844-6.928-15.379c-36.917-5.696-58.73-14.087-63.074-24.249
	c-0.456-1.067-0.71-2.142-0.766-3.204c-0.17-3.03,1.969-5.686,4.954-6.18c29.319-4.829,55.386-20.324,77.486-46.072
	c17.119-19.934,25.525-38.98,26.427-41.083c0.04-0.095,0.086-0.195,0.132-0.284c4.26-8.643,5.108-16.111,2.528-22.192
	c-4.757-11.218-20.511-16.217-30.934-19.523c-2.592-0.82-5.044-1.598-6.998-2.373c-9.239-3.65-24.435-11.361-22.411-22.004
	c1.475-7.761,11.74-13.166,20.036-13.166c2.305,0,4.346,0.404,6.064,1.211c9.375,4.392,17.809,6.618,25.063,6.618
	c9.02,0,13.376-3.435,14.431-4.411c-0.26-4.812-0.578-9.899-0.884-14.711c0-0.005-0.008-0.063-0.008-0.063
	c-2.116-33.682-4.758-75.6,5.964-99.638c32.092-71.952,100.149-77.547,120.236-77.547c0.535,0,8.755-0.082,8.755-0.082
	c0.372-0.006,0.774-0.012,1.191-0.012c20.143,0,88.341,5.601,120.452,77.598c10.722,24.053,8.078,66.005,5.955,99.724l-0.1,1.613
	c-0.292,4.579-0.56,8.912-0.788,13.112c0.993,0.913,4.978,4.063,13.091,4.38c6.914-0.264,14.861-2.48,23.611-6.577
	c2.705-1.27,5.7-1.533,7.733-1.533c3.075,0,6.202,0.598,8.808,1.686l0.14,0.054c7.425,2.635,12.289,7.902,12.394,13.436
	c0.092,5.158-3.741,12.868-22.596,20.314c-1.931,0.765-4.394,1.548-6.998,2.373c-10.431,3.31-26.172,8.307-30.929,19.518
	c-2.585,6.08-1.735,13.547,2.526,22.187c0.047,0.093,0.087,0.19,0.133,0.29c1.312,3.075,33.066,75.479,103.913,87.15
	c2.985,0.497,5.127,3.157,4.957,6.18c-0.063,1.086-0.325,2.173-0.785,3.235c-4.314,10.104-26.125,18.484-63.054,24.188
	c-3.465,0.536-4.926,6.137-6.923,15.307c-0.826,3.787-1.667,7.5-2.815,11.401c-1.075,3.67-3.466,5.463-7.304,5.463h-0.578
	c-2.499,0-6.041-0.454-10.507-1.327c-7.805-1.519-16.559-2.934-27.692-2.934c-6.492,0-13.21,0.57-19.973,1.689
	c-13.739,2.288-25.478,10.577-37.904,19.362C478.262,476.009,458.573,489.925,429.142,489.925"/>
<path fill="#020202" d="M430.893,31.746c18.963,0,84.264,5.095,115.037,74.085c10.132,22.717,7.534,63.87,5.451,96.928
	c-0.325,5.246-0.648,10.331-0.909,15.187l-0.11,2.087l1.393,1.554c0.562,0.625,5.831,6.129,17.545,6.583l0.19,0.01l0.196-0.004
	c7.746-0.296,16.47-2.702,25.944-7.14c1.395-0.653,3.253-0.971,5.218-0.971c2.239,0,4.62,0.42,6.583,1.247l0.296,0.118
	c4.968,1.741,8.48,5.023,8.534,7.994c0.03,1.678-1.226,7.728-18.837,14.684c-1.722,0.68-3.987,1.403-6.613,2.23
	c-11.461,3.64-28.776,9.131-34.602,22.862c-3.281,7.736-2.383,16.864,2.667,27.128c2.078,4.849,34.792,78.535,108.403,90.665
	c-0.015,0.35-0.104,0.732-0.301,1.181c-1.248,2.939-9.178,13.091-58.526,20.706c-7.721,1.183-9.612,9.839-11.807,19.901
	c-0.792,3.603-1.598,7.238-2.704,10.995c-0.338,1.135-0.401,1.199-1.618,1.199c-0.168,0-0.364,0-0.579,0
	c-2.188,0-5.51-0.455-9.361-1.209c-7.012-1.366-16.591-3.041-28.837-3.041c-6.835,0-13.876,0.594-20.94,1.773
	c-15.101,2.511-27.382,11.197-40.388,20.391c-17.467,12.342-35.52,25.114-63.064,25.114c-1.203,0-2.376-0.041-3.554-0.1
	l-0.309-0.013l-0.311,0.023c-0.676,0.059-1.357,0.09-2.052,0.09c-27.539,0-45.601-12.768-63.059-25.114
	c-13.009-9.193-25.296-17.88-40.394-20.391c-7.058-1.175-14.105-1.773-20.936-1.773c-12.244,0-21.834,1.873-28.832,3.241
	c-3.851,0.753-7.185,1.399-9.366,1.399c-1.787,0-1.82-0.105-2.198-1.397c-1.107-3.757-1.917-7.482-2.706-11.078
	c-2.198-10.072-4.091-18.776-11.81-19.96c-49.343-7.621-57.274-17.791-58.526-20.721c-0.196-0.462-0.284-0.856-0.304-1.204
	c73.61-12.119,106.316-85.808,108.401-90.676c5.06-10.257,5.957-19.384,2.666-27.128c-5.828-13.723-23.139-19.222-34.592-22.855
	c-2.633-0.833-4.899-1.557-6.622-2.237c-14.871-5.875-19.446-11.794-18.766-15.381c0.788-4.137,7.958-8.343,14.217-8.343
	c1.407,0,2.639,0.228,3.551,0.653c10.163,4.763,19.44,7.18,27.578,7.18c12.792,0,18.486-5.952,19.097-6.632l1.387-1.55l-0.112-2.077
	c-0.259-4.853-0.578-9.936-0.913-15.172c-2.077-33.066-4.674-74.191,5.455-96.91c30.659-68.737,95.641-74.035,114.822-74.035
	c0.473,0,8.813-0.086,8.813-0.086C430.117,31.751,430.496,31.746,430.893,31.746 M430.893,19.889h-0.022
	c-0.437,0-0.848,0-1.239,0.006c-3.117,0.031-8.242,0.081-8.702,0.086c-11.238,0-33.722,1.587-57.874,12.248
	c-13.809,6.092-26.23,14.327-36.916,24.48C313.4,68.805,303.02,83.72,295.295,101.045c-11.311,25.366-8.626,68.094-6.47,102.429
	l0.008,0.054c0.231,3.677,0.474,7.518,0.696,11.259c-1.659,0.762-4.35,1.567-8.316,1.567c-6.381,0-13.969-2.041-22.547-6.06
	c-2.525-1.176-5.405-1.771-8.585-1.771c-5.107,0-10.49,1.504-15.161,4.25c-5.875,3.45-9.673,8.326-10.704,13.733
	c-0.679,3.577-0.647,10.645,7.205,17.813c4.319,3.946,10.663,7.586,18.852,10.822c2.148,0.847,4.699,1.654,7.4,2.511
	c9.374,2.98,23.56,7.48,27.26,16.187c1.874,4.415,1.069,10.224-2.392,17.245c-0.09,0.191-0.181,0.379-0.264,0.575
	c-0.863,2.019-8.929,20.288-25.474,39.556c-9.401,10.956-19.755,20.114-30.759,27.224c-13.431,8.681-27.965,14.356-43.191,16.865
	c-5.98,0.98-10.25,6.308-9.917,12.363c0.103,1.745,0.513,3.483,1.221,5.167c0.006,0.01,0.013,0.022,0.018,0.031
	c2.417,5.655,8.024,10.459,17.136,14.697c11.137,5.172,27.793,9.524,49.5,12.928c1.097,2.086,2.236,7.328,3.023,10.918
	c0.825,3.815,1.686,7.737,2.912,11.904c1.325,4.514,4.758,9.908,13.577,9.908c3.343,0,7.186-0.753,11.638-1.617
	c6.518-1.279,15.433-3.023,26.558-3.023c6.169,0,12.562,0.543,18.997,1.612c12.404,2.065,23.096,9.619,35.47,18.366
	c18.109,12.802,38.607,27.292,69.926,27.292c0.855,0,1.71-0.028,2.557-0.087c1.035,0.049,2.318,0.087,3.672,0.087
	c31.328,0,51.821-14.496,69.91-27.287l0.029-0.026c12.374-8.737,23.055-16.281,35.455-18.346c6.433-1.067,12.824-1.612,18.995-1.612
	c10.628,0,19.044,1.355,26.559,2.821c4.903,0.965,8.714,1.43,11.639,1.43l0.286,0.005h0.296c6.451,0,11.191-3.541,13-9.737
	c1.202-4.079,2.06-7.91,2.906-11.789c0.738-3.364,1.915-8.755,3.012-10.864c21.723-3.41,38.371-7.752,49.509-12.924
	c9.092-4.218,14.692-9.017,17.124-14.648c0.73-1.689,1.156-3.439,1.252-5.219c0.342-6.044-3.935-11.383-9.917-12.364
	c-67.674-11.154-98.161-80.689-99.421-83.643c-0.082-0.193-0.173-0.387-0.269-0.574c-3.459-7.024-4.258-12.827-2.383-17.249
	c3.692-8.699,17.869-13.2,27.25-16.178c2.716-0.856,5.274-1.668,7.406-2.511c9.234-3.647,15.835-7.604,20.19-12.096
	c5.2-5.356,6.212-10.489,6.149-13.847c-0.159-8.126-6.37-15.347-16.251-18.883c-3.337-1.38-7.144-2.108-11.019-2.108
	c-2.638,0-6.544,0.361-10.243,2.088c-7.917,3.705-15.01,5.731-21.098,6.019c-3.237-0.164-5.509-0.866-6.98-1.536
	c0.186-3.169,0.39-6.426,0.601-9.821l0.088-1.453c2.169-34.359,4.863-77.118-6.454-102.504
	c-7.757-17.386-18.174-32.338-30.966-44.462c-10.728-10.159-23.191-18.395-37.049-24.481
	C464.629,21.47,442.147,19.889,430.893,19.889"/>
<rect x="168.954" y="0.712" fill="none" width="514.23" height="514.23"/>
</svg>
