<?xml version="1.0" encoding="utf-8"?>
<!-- Generator: Adobe Illustrator 19.0.0, SVG Export Plug-In . SVG Version: 6.00 Build 0)  -->
<svg version="1.1" id="Layer_1" xmlns="http://www.w3.org/2000/svg" xmlns:xlink="http://www.w3.org/1999/xlink" x="0px" y="0px"
	 viewBox="390.029 391.027 243.945 243.955" enable-background="new 390.029 391.027 243.945 243.955" xml:space="preserve">
<g id="logo">
	<g>
		<g>
			<path fill="#FFFFFF" d="M595.625,429.639c-21.555-21.574-50.221-33.461-80.763-33.473c-62.93,0-114.146,51.197-114.172,114.128
				c-0.008,20.116,5.249,39.752,15.24,57.059l-16.197,59.145l60.524-15.871c16.676,9.092,35.451,13.884,54.559,13.892h0.047
				c0.004,0-0.004,0,0,0c62.923,0,114.146-51.203,114.171-114.134C629.046,479.888,617.182,451.212,595.625,429.639z
				 M514.863,605.244h-0.038c-17.028-0.008-33.73-4.58-48.299-13.224l-3.466-2.056l-35.915,9.418l9.587-35.006l-2.257-3.589
				c-9.499-15.104-14.516-32.562-14.508-50.486c0.02-52.305,42.59-94.859,94.934-94.859c25.345,0.01,49.172,9.891,67.088,27.822
				c17.917,17.931,27.778,41.765,27.768,67.113C609.736,562.687,567.166,605.244,514.863,605.244z M566.915,534.194
				c-2.854-1.427-16.879-8.326-19.493-9.278c-2.615-0.952-4.517-1.427-6.419,1.427c-1.902,2.855-7.368,9.278-9.034,11.182
				c-1.663,1.903-3.328,2.141-6.18,0.714c-2.854-1.427-12.045-4.439-22.941-14.154c-8.48-7.561-14.206-16.901-15.87-19.757
				c-1.664-2.855-0.177-4.398,1.252-5.821c1.283-1.277,2.852-3.331,4.279-4.996c1.426-1.665,1.902-2.855,2.853-4.758
				c0.951-1.903,0.475-3.569-0.238-4.996c-0.712-1.428-6.418-15.465-8.796-21.175c-2.315-5.561-4.667-4.809-6.418-4.896
				c-1.663-0.083-3.566-0.101-5.468-0.101c-1.901,0-4.993,0.714-7.607,3.569c-2.615,2.855-9.984,9.755-9.984,23.791
				c0,14.037,10.222,27.598,11.648,29.501c1.427,1.904,20.116,30.71,48.733,43.062c6.806,2.939,12.12,4.694,16.264,6.008
				c6.834,2.17,13.052,1.865,17.968,1.13c5.482-0.819,16.878-6.9,19.256-13.562c2.377-6.662,2.377-12.371,1.664-13.56
				C571.669,536.337,569.767,535.623,566.915,534.194z"/>
		</g>
	</g>
</g>
</svg>
