<?xml version="1.0" encoding="iso-8859-1"?>
<!-- Generator: Adobe Illustrator 19.0.0, SVG Export Plug-In . SVG Version: 6.00 Build 0)  -->
<svg version="1.1" id="Layer_1" xmlns="http://www.w3.org/2000/svg" xmlns:xlink="http://www.w3.org/1999/xlink" x="0px" y="0px"
	 viewBox="0 0 297 297" style="enable-background:new 0 0 297 297;" xml:space="preserve">
<g>
	<g>
		<path style="fill:#B2B2B2;" d="M284.647,238.956H12.353C5.531,238.956,0,233.425,0,226.603V59.132
			c0-6.822,5.531-12.353,12.353-12.353h272.294c6.822,0,12.353,5.531,12.353,12.353v167.47
			C297,233.425,291.469,238.956,284.647,238.956z"/>
	</g>
	<g>
		<path style="fill:#8E8E8E;" d="M284.647,46.779H148.589v192.176h136.058c6.822,0,12.353-5.531,12.353-12.353V59.132
			C297,52.31,291.469,46.779,284.647,46.779z"/>
	</g>
	<g>
		<path style="fill:#CDCFCC;" d="M267.176,221.485H29.824c-6.822,0-12.353-5.531-12.353-12.353V76.603
			c0-6.822,5.531-12.353,12.353-12.353h237.353c6.822,0,12.353,5.531,12.353,12.353v132.529
			C279.529,215.954,273.999,221.485,267.176,221.485z"/>
	</g>
	<g>
		<path style="fill:#B7B7B7;" d="M267.176,64.25H148.589v157.235h118.588c6.822,0,12.353-5.531,12.353-12.353V76.603
			C279.529,69.78,273.999,64.25,267.176,64.25z"/>
	</g>
	<g>
		<path style="fill:#74747C;" d="M96.353,107.662H43.941c-4.678,0-8.471-3.793-8.471-8.471s3.793-8.471,8.471-8.471h52.412
			c4.678,0,8.471,3.793,8.471,8.471S101.031,107.662,96.353,107.662z"/>
	</g>
	<g>
		<path style="fill:#74747C;" d="M131.294,142.603H43.941c-4.678,0-8.471-3.793-8.471-8.471s3.793-8.471,8.471-8.471h87.353
			c4.678,0,8.471,3.793,8.471,8.471S135.972,142.603,131.294,142.603z"/>
	</g>
	<g>
		<path style="fill:#74747C;" d="M131.294,177.544H43.941c-4.678,0-8.471-3.793-8.471-8.471s3.793-8.471,8.471-8.471h87.353
			c4.678,0,8.471,3.793,8.471,8.471S135.972,177.544,131.294,177.544z"/>
	</g>
	<g>
		<path style="fill:#663435;" d="M217.148,248.925l9.969-9.969l9.969,9.969c2.768,2.768,7.501,0.808,7.501-3.107v-59.274h-34.941
			v59.274C209.647,249.733,214.38,251.693,217.148,248.925z"/>
	</g>
	<g>
		<path style="fill:#56292C;" d="M226.942,186.544v52.588l0.176-0.176l9.969,9.969c2.768,2.768,7.501,0.808,7.501-3.107v-59.274
			H226.942z"/>
	</g>
	<g>
		<circle style="fill:#A91523;" cx="227.118" cy="169.073" r="34.941"/>
	</g>
	<g>
		<path style="fill:#8C1022;" d="M227.118,134.132c-0.059,0-0.117,0.004-0.176,0.004v69.874c0.059,0,0.117,0.004,0.176,0.004
			c19.297,0,34.941-15.644,34.941-34.941S246.415,134.132,227.118,134.132z"/>
	</g>
</g>
<g>
</g>
<g>
</g>
<g>
</g>
<g>
</g>
<g>
</g>
<g>
</g>
<g>
</g>
<g>
</g>
<g>
</g>
<g>
</g>
<g>
</g>
<g>
</g>
<g>
</g>
<g>
</g>
<g>
</g>
</svg>
