<?xml version="1.0" encoding="iso-8859-1"?>
<!-- Generator: Adobe Illustrator 19.0.0, SVG Export Plug-In . SVG Version: 6.00 Build 0)  -->
<svg version="1.1" id="Layer_1" xmlns="http://www.w3.org/2000/svg" xmlns:xlink="http://www.w3.org/1999/xlink" x="0px" y="0px"
	 viewBox="0 0 496.8 496.8" style="enable-background:new 0 0 496.8 496.8;" xml:space="preserve">
<path style="fill:#FFFFFF;" d="M480,385.2c0,12.8-10.4,23.2-23.2,23.2H31.2C18.4,408.4,8,398,8,385.2V103.6
	c0-12.8,10.4-23.2,23.2-23.2h426.4c12.8,0,23.2,10.4,23.2,23.2v281.6H480z"/>
<path style="fill:#E9F2F1;" d="M12,104.4c0-12.8,10.4-24,23.2-24h426.4c12.8,0,19.2,12.8,19.2,25.6v284.8c0,12.8-8,22.4-20.8,22.4"
	/>
<path style="fill:#B8BFBE;" d="M460.8,96.4c6.4,0,11.2,3.2,11.2,9.6v284.8c0,6.4-4.8,9.6-11.2,9.6H35.2c-6.4,0-11.2-3.2-11.2-9.6
	V106c0-6.4,4.8-9.6,11.2-9.6H464 M460.8,72.4H35.2C16,72.4,0,86.8,0,106v284.8c0,19.2,16,33.6,35.2,33.6h426.4
	c19.2,0,35.2-14.4,35.2-33.6V106C496,86.8,480,72.4,460.8,72.4L460.8,72.4z"/>
<path style="fill:#E9F4F3;" d="M396,256.4l26.4-26.4c4-4,5.6-8.8,5.6-13.6s-1.6-10.4-5.6-13.6c-8-8-20-8-28,0L368,228.4L341.6,202
	c-8-8-20-8-28,0s-8,20,0,28l26.4,26.4l-0.8,0.8l0,0l-25.6,25.6c-8,8-8,20,0,28s20,8,28,0l26.4-26.4l26.4,26.4c4,4,8.8,5.6,13.6,5.6
	c4.8,0,10.4-1.6,13.6-5.6c8-8,8-20,0-28L396,256.4z"/>
<path style="fill:#B70000;" d="M396,240.4l26.4-26.4c4-4,5.6-8.8,5.6-13.6s-1.6-10.4-5.6-13.6c-8-8-20-8-28,0L368,213.2l-26.4-26.4
	c-8-8-20-8-28,0s-8,20,0,28l26.4,26.4l-26.4,26.4c-8,8-8,20,0,28s20,8,28,0l26.4-26.4l26.4,26.4c4,4,8.8,5.6,13.6,5.6
	c4.8,0,10.4-1.6,13.6-5.6c8-8,8-20,0-28L396,240.4z"/>
<path style="fill:#CE0909;" d="M394.4,186.8L368,213.2l-26.4-26.4c-8-8-20-8-28,0s-8,20,0,28l26.4,26.4l-0.8,0.8
	c9.6,0.8,19.2,1.6,28.8,1.6c9.6,0,19.2-0.8,28.8-1.6l-0.8-1.6l26.4-26.4c4-4,5.6-8.8,5.6-13.6s-1.6-10.4-5.6-13.6
	C414.4,178.8,401.6,178.8,394.4,186.8z"/>
<g>
</g>
<g>
</g>
<g>
</g>
<g>
</g>
<g>
</g>
<g>
</g>
<g>
</g>
<g>
</g>
<g>
</g>
<g>
</g>
<g>
</g>
<g>
</g>
<g>
</g>
<g>
</g>
<g>
</g>
</svg>
