<?xml version="1.0" encoding="iso-8859-1"?>
<!-- Generator: Adobe Illustrator 19.0.0, SVG Export Plug-In . SVG Version: 6.00 Build 0)  -->
<svg version="1.1" id="Layer_1" xmlns="http://www.w3.org/2000/svg" xmlns:xlink="http://www.w3.org/1999/xlink" x="0px" y="0px"
	 viewBox="0 0 512 512" style="enable-background:new 0 0 512 512;" xml:space="preserve">
<path style="fill:#CCCCCC;" d="M81.242,501.801V185.194c0-96.647,78.111-174.995,174.758-174.995l0,0
	c96.647,0,174.758,78.348,174.758,174.995v316.607H81.242z"/>
<path d="M469.163,512c5.632,0,10.199-4.566,10.199-10.199s-4.567-10.199-10.199-10.199h-28.205V185.194
	c0-49.478-19.219-95.982-54.118-130.946C351.923,19.266,305.456,0,256,0s-95.924,19.266-130.84,54.249
	c-34.898,34.963-54.117,81.467-54.117,130.946v306.408H42.837c-5.633,0-10.199,4.566-10.199,10.199S37.204,512,42.837,512H469.163z
	 M340.883,326.919c-5.336-1.819-11.126,1.034-12.943,6.365c-1.816,5.332,1.034,11.127,6.365,12.943l29.917,10.192l-22.293,15.665
	c-4.61,3.239-5.72,9.601-2.481,14.21c1.985,2.825,5.144,4.336,8.353,4.336c2.026,0,4.072-0.602,5.854-1.855l34.41-24.179
	l32.494,11.321v115.685H91.441V185.194c0-90.869,73.821-164.796,164.559-164.796c90.739,0,164.56,73.927,164.56,164.796v169.121
	L340.883,326.919z"/>
<path d="M117.291,324.119c-5.633,0-10.199,4.566-10.199,10.199v8.375c0,5.633,4.566,10.199,10.199,10.199
	s10.199-4.566,10.199-10.199v-8.375C127.49,328.686,122.924,324.119,117.291,324.119z"/>
<path d="M117.291,368.734c-5.633,0-10.199,4.566-10.199,10.199v90.23c0,5.633,4.566,10.199,10.199,10.199
	s10.199-4.566,10.199-10.199v-90.23C127.49,373.3,122.924,368.734,117.291,368.734z"/>
<path d="M257.02,140.749c-5.633,0-10.199,4.566-10.199,10.199v122.39c0,5.633,4.566,10.199,10.199,10.199
	c5.632,0,10.199-4.566,10.199-10.199v-122.39C267.219,145.315,262.652,140.749,257.02,140.749z"/>
<path d="M328.414,232.432c20.98-4.671,36.717-23.42,36.717-45.786c0-25.869-21.047-46.916-46.916-46.916
	c-5.632,0-10.199,4.566-10.199,10.199c0,0.172,0.017,0.34,0.026,0.51c-0.008,0.17-0.026,0.338-0.026,0.51v122.39
	c0,5.633,4.567,10.199,10.199,10.199s10.199-4.566,10.199-10.199V232.432z M344.733,186.645c0,11.009-6.745,20.471-16.319,24.475
	v-48.951C337.988,166.175,344.733,175.636,344.733,186.645z"/>
<path d="M180.221,229.031c15.843-7.54,26.823-23.703,26.823-42.386c0-25.869-21.047-46.916-46.916-46.916
	c-5.633,0-10.199,4.566-10.199,10.199c0,0.172,0.017,0.34,0.025,0.51c-0.008,0.17-0.025,0.338-0.025,0.51v122.39
	c0,5.633,4.566,10.199,10.199,10.199c5.633,0,10.199-4.566,10.199-10.199v-25.352l33.585,33.585
	c1.992,1.992,4.602,2.987,7.212,2.987c2.61,0,5.221-0.995,7.212-2.987c3.983-3.983,3.983-10.441,0-14.425L180.221,229.031z
	 M186.645,186.645c0,11.009-6.745,20.471-16.319,24.475v-48.951C179.901,166.175,186.645,175.636,186.645,186.645z"/>
<g>
</g>
<g>
</g>
<g>
</g>
<g>
</g>
<g>
</g>
<g>
</g>
<g>
</g>
<g>
</g>
<g>
</g>
<g>
</g>
<g>
</g>
<g>
</g>
<g>
</g>
<g>
</g>
<g>
</g>
</svg>
